<?xml version="1.0" encoding="iso-8859-1"?>
<!-- Uploaded to: SVG Repo, www.svgrepo.com, Generator: SVG Repo Mixer Tools -->
<svg height="800px" width="800px" version="1.1" id="Layer_1" xmlns="http://www.w3.org/2000/svg" xmlns:xlink="http://www.w3.org/1999/xlink" 
	 viewBox="0 0 512 512" xml:space="preserve">
<g transform="translate(1 1)">
	<path style="fill:#FFFFFF;" d="M92.867,459.8v-42.667v-204.8V24.6c0-9.387,7.68-17.067,17.067-17.067h281.6
		c9.387,0,17.067,7.68,17.067,17.067v460.8c0,9.387-7.68,17.067-17.067,17.067H50.2C74.093,502.467,92.867,483.693,92.867,459.8"/>
	<path style="fill:#FFA800;" d="M186.733,459.8v-42.667v-204.8V24.6c0-9.387,7.68-17.067,17.067-17.067h281.6
		c9.387,0,17.067,7.68,17.067,17.067v460.8c0,9.387-7.68,17.067-17.067,17.067H144.067
		C167.96,502.467,186.733,483.693,186.733,459.8"/>
	<path style="fill:#FFE100;" d="M118.467,459.8v-42.667v-204.8V24.6c0-9.387,7.68-17.067,17.067-17.067H459.8
		c9.387,0,17.067,7.68,17.067,17.067v460.8c0,9.387-7.68,17.067-17.067,17.067h-384C99.693,502.467,118.467,483.693,118.467,459.8"
		/>
	<path style="fill:#FFFFFF;" d="M50.2,502.467L50.2,502.467c23.893,0,42.667-18.773,42.667-42.667V280.6H24.6
		c-9.387,0-17.067,7.68-17.067,17.067V459.8C7.533,483.693,26.307,502.467,50.2,502.467"/>
	<path style="fill:#FFE100;" d="M63,502.467L63,502.467c16.213,0,29.867-18.773,29.867-42.667V280.6H45.08
		c-6.827,0-11.947,7.68-11.947,17.067V459.8C33.133,483.693,46.787,502.467,63,502.467"/>
	<g>
		<polygon style="fill:#E4667F;" points="135.533,323.267 186.733,323.267 186.733,272.067 135.533,272.067 		"/>
		<polygon style="fill:#E4667F;" points="135.533,417.133 186.733,417.133 186.733,365.933 135.533,365.933 		"/>
	</g>
	<polygon style="fill:#00AD55;" points="135.533,220.867 459.8,220.867 459.8,92.867 135.533,92.867 	"/>
	<polygon style="fill:#00DA6C;" points="135.533,220.867 434.2,220.867 434.2,92.867 135.533,92.867 	"/>
	<path d="M50.2,511C22.04,511-1,487.96-1,459.8V280.6c0-5.12,3.413-8.533,8.533-8.533h85.333c5.12,0,8.533,3.413,8.533,8.533v179.2
		C101.4,487.96,78.36,511,50.2,511z M16.067,289.133V459.8c0,18.773,15.36,34.133,34.133,34.133s34.133-15.36,34.133-34.133V289.133
		H16.067z"/>
	<path d="M459.8,511H50.2c-5.12,0-8.533-3.413-8.533-8.533c0-5.12,3.413-8.533,8.533-8.533c18.773,0,34.133-15.36,34.133-34.133
		V24.6c0-14.507,11.093-25.6,25.6-25.6H485.4C499.907-1,511,10.093,511,24.6v435.2C511,487.96,487.96,511,459.8,511z M88.6,493.933
		h371.2c18.773,0,34.133-15.36,34.133-34.133V24.6c0-5.12-3.413-8.533-8.533-8.533H109.933c-5.12,0-8.533,3.413-8.533,8.533v435.2
		C101.4,472.6,96.28,484.547,88.6,493.933z"/>
	<path d="M459.8,229.4H135.533c-5.12,0-8.533-3.413-8.533-8.533v-128c0-5.12,3.413-8.533,8.533-8.533H459.8
		c5.12,0,8.533,3.413,8.533,8.533v128C468.333,225.987,464.92,229.4,459.8,229.4z M144.067,212.333h307.2V101.4h-307.2V212.333z"/>
	<path d="M459.8,58.733H135.533c-5.12,0-8.533-3.413-8.533-8.533s3.413-8.533,8.533-8.533H459.8c5.12,0,8.533,3.413,8.533,8.533
		S464.92,58.733,459.8,58.733z"/>
	<path d="M186.733,331.8h-51.2c-5.12,0-8.533-3.413-8.533-8.533v-51.2c0-5.12,3.413-8.533,8.533-8.533h51.2
		c5.12,0,8.533,3.413,8.533,8.533v51.2C195.267,328.387,191.853,331.8,186.733,331.8z M144.067,314.733H178.2V280.6h-34.133V314.733
		z"/>
	<path d="M186.733,425.667h-51.2c-5.12,0-8.533-3.413-8.533-8.533v-51.2c0-5.12,3.413-8.533,8.533-8.533h51.2
		c5.12,0,8.533,3.413,8.533,8.533v51.2C195.267,422.253,191.853,425.667,186.733,425.667z M144.067,408.6H178.2v-34.133h-34.133
		V408.6z"/>
	<path d="M459.8,280.6H229.4c-5.12,0-8.533-3.413-8.533-8.533s3.413-8.533,8.533-8.533h230.4c5.12,0,8.533,3.413,8.533,8.533
		S464.92,280.6,459.8,280.6z"/>
	<path d="M314.733,323.267H229.4c-5.12,0-8.533-3.413-8.533-8.533c0-5.12,3.413-8.533,8.533-8.533h85.333
		c5.12,0,8.533,3.413,8.533,8.533C323.267,319.853,319.853,323.267,314.733,323.267z"/>
	<path d="M459.8,374.467H229.4c-5.12,0-8.533-3.413-8.533-8.533s3.413-8.533,8.533-8.533h230.4c5.12,0,8.533,3.413,8.533,8.533
		S464.92,374.467,459.8,374.467z"/>
	<path d="M314.733,417.133H229.4c-5.12,0-8.533-3.413-8.533-8.533c0-5.12,3.413-8.533,8.533-8.533h85.333
		c5.12,0,8.533,3.413,8.533,8.533C323.267,413.72,319.853,417.133,314.733,417.133z"/>
	<path d="M459.8,468.333H135.533c-5.12,0-8.533-3.413-8.533-8.533s3.413-8.533,8.533-8.533H459.8c5.12,0,8.533,3.413,8.533,8.533
		S464.92,468.333,459.8,468.333z"/>
</g>
</svg>